<?xml version="1.0" encoding="UTF-8"?>
<svg id="katman_1" data-name="katman 1" xmlns="http://www.w3.org/2000/svg" version="1.1" viewBox="0 0 573.49 853.16">
  <defs>
    <style>
      .cls-1 {
        fill: #c20911;
      }

      .cls-1, .cls-2 {
        stroke-width: 0px;
      }

      .cls-2 {
        fill: #fefefe;
      }
    </style>
  </defs>
  <path class="cls-1" d="M167.07,430.07c.35.18.82.22,1.03.54.7,1.05,1.08,4.5,1.44,5.85l3.87,12.49c6.94,19.62,18.05,35.02,31.73,50.44-16.03,8.46-29.12,20.25-41.53,33.32l-6.61,7.32c-1.08,1.3-2.64,3.61-3.98,4.55-1.31.92-4.82,1.55-6.45,2.05l-16.61,5.29c-23.91,7.61-48.76,14.86-70.82,27.08-12.34,6.83-23.32,15.15-33.6,24.76-6.61,6.54-12.06,13.6-17.44,21.15l4.06-17.36c8.91-28.42,21.91-56.61,39.05-81.08,9.58-13.67,20.7-26.14,32.53-37.91,7.01-6.98,14.12-13.77,21.88-19.91,19.1-15.11,39.87-27.36,61.44-38.58Z"/>
  <path class="cls-1" d="M405.99,429.68c5.78,2.23,10.82,5.18,16.29,8.03,9.78,5.09,19.63,10.19,28.66,16.57,47.86,33.83,82.78,78.93,103.18,133.89l6.71,20.45c1.45,4.76,3.07,9.58,3.91,14.49-1.39-2.04-2.23-4.45-3.54-6.55-3.33-5.38-7.79-10.03-12.35-14.36-19.06-17.36-42.95-27.41-66.83-36.27l-34.83-12.78-16.98-6.11c-3.5-1.24-7.45-2.3-10.67-4.16-1.95-1.12-3.55-3.24-5.07-4.9l-10.23-11.35c-10.32-11.23-21.58-20.62-35.09-27.78,4.28-3.94,7.67-9.04,10.98-13.81,11.76-16.98,20.65-35.33,25.85-55.34Z"/>
  <path class="cls-1" d="M279.5.32c14.54-1.14,29,.78,42.7,5.8,23.41,8.58,43.89,27.11,54.26,49.93.09.19.09.45.26.59.15.13,9.04-.06,10.15-.04,14.17.32,30.07,5.4,42.18,12.58,22,13.02,37.36,33.67,43.53,58.44,5.51,22.12,1.59,46.34-10.29,65.79-10.75,17.62-27.41,29.77-47.44,34.59l-13.98,106.69c2.55-.73,5.15-1.35,7.82-1,3.16.42,5.67,2.3,7.55,4.81,5.65,7.51,4.87,20.05,3.46,28.82-2.46,15.28-10.64,35.79-23.62,45.04-.21.15-.48.24-.63.44-.23.32-.26,3.48-.31,4.05-.29,3.26-.97,6.49-1.77,9.66-3.84,15.31-10.71,31.27-19.26,44.57-12.3,19.15-28.59,35.54-47.71,47.88-8.74,5.63-17.57,10.3-27.77,12.55-6.66,1.23-13.97,1.73-20.67.6-10.27-1.74-19.87-6.75-28.65-12.2-26.8-16.64-46.39-39.17-59.31-68-3.61-8.07-6.62-16.86-8.6-25.47-.58-2.54-1.25-5.1-1.57-7.68-.13-1.01-.05-3.63-.43-4.44-.31-.66-2.43-2.24-3.05-2.82-2.48-2.36-4.83-4.76-6.81-7.57-7.84-11.13-12.26-25.25-14.19-38.6-.83-5.76-1.31-12.53-.28-18.27.83-4.61,2.46-9.17,6.6-11.81,2.98-1.9,6.34-2.14,9.72-1.3l.52.14.2-.96c.2-2.6-.61-6.04-.92-8.65l-2.69-21.81-7.65-64.46c-.13-1.19-.85-9.53-1.3-9.97-.15-.14-3.78-.65-4.38-.79-2.92-.65-5.77-1.68-8.51-2.86-9.39-4.03-17.89-10.34-24.92-17.74-15.12-15.91-22.78-38.05-22.28-59.78.57-24.98,11.39-48.5,29.54-65.62,18.88-17.8,44.61-25.91,70.2-25.19,3.28-8.36,8.4-15.82,14.12-22.69C229.74,13.85,254.27,2.54,279.5.32Z"/>
  <path class="cls-2" d="M267.83,432.23c4.21-.33,8.11.34,12.09,1.71,1.21.42,6.71,3.3,7.36,3.18,1.04-.2,2.95-1.49,3.99-1.98,3.26-1.55,6.93-2.36,10.52-2.6,9.15-.59,18.59,2.31,25.52,8.42,6.71,5.91,8.92,13.22,9.48,21.83l1.65-.51c8.22-2.41,12.84-6.46,17.89-13.37-2.44,9.69-5.54,18.8-13.59,25.3-4.65,3.77-10.95,6.64-17.01,5.96-8.76-.97-18.27-4.76-26.15-8.58-5.98-3.27-9.17-6.97-12.19-12.99l-4.34,5.9c-5.81,7.51-16.26,11.96-25.49,13-10.72,1.21-21.78-1.08-30.29-7.91-8-6.41-10.71-16.18-11.81-25.94,2.83,2.82,5.51,6.08,8.84,8.33,15.53,10.48,23.14-8.49,33.75-15.93,3.08-2.16,6.12-3.12,9.78-3.82Z"/>
  <path class="cls-2" d="M284.36,28.32c16.63-.63,33.74,4.48,47.46,13.87,16.59,11.36,29.84,29.93,33.4,49.93,3.09,17.39.7,35.6-7.13,51.49-2.73,5.53-6.24,10.4-9.79,15.41,2.77-1.48,5.46-4.34,7.7-6.54,13.08-12.81,21.74-32.29,24.29-50.32.95-6.69.84-13.6.91-20.34,5.11.81,10.16,2.07,14.96,4.01,20.13,8.14,35.01,23.85,43.29,43.79,7.09,17.06,8.09,36.92.8,54.1-5.98,14.14-16.53,25.52-30.97,31.18-19.71,7.73-41.76,1.32-60.19-6.89l-14.86-7.21c4.84,5.12,10.84,9.21,16.82,12.86,16.55,10.08,33.13,14.96,52.38,15.97l-9.86,68.46c-17.14-3.68-34.1-7.2-51.51-9.46-18.05-2.34-36.45-3.27-54.64-3.53-9.39-.07-18.75.72-28.11,1.38-26.41,1.86-52.34,5.53-78,12.24l-10.86-68.7c6.54-.44,13.07-.98,19.48-2.43,18.94-4.28,36.91-14.31,51-27.57-15.09,8.52-30.69,15.52-48.06,17.75-14.89,1.91-29.62-1.68-41.49-11.06-13.4-10.59-21.63-26.75-23.54-43.61-2.23-19.74,3.22-38.95,15.58-54.54,12.51-15.78,30.8-24.32,50.45-26.64l.34,11.15c1.42,25.43,14.21,49.42,32.97,66.28l-7.66-12.07c-5.88-10.29-9.74-22.18-10.67-34.01-1.67-21.06,5.22-42.2,19.21-58.08,14.7-16.69,34.26-25.41,56.29-26.88Z"/>
  <path class="cls-1" d="M372.52,516.78c7.74,5.85,14.93,12.42,21.83,19.24l11.79,12.05c1.48,1.48,3.3,3.67,5.12,4.7,2.21,1.26,5.01,1.9,7.39,2.8l17.9,6.71,54.38,21.45c14.8,6.47,30.43,14.2,42.91,24.61,7.49,6.25,14.35,14.08,19.88,22.07,12.07,17.45,17.63,41.54,19.1,62.43.15,2.15,1.1,6.52.4,8.47-.71,1.97-2.99,4.46-4.26,6.17l-14.4,18.38c-39.85,46.98-88.93,82.95-146.47,105.27-82.88,32.16-177.19,28.5-258.24-7.1-35.09-15.77-67.8-37.14-95.92-63.45-18.19-17.02-34.79-36.16-50.79-55.23-.73-.87-2.6-2.6-2.92-3.51-.73-2.04.34-7.1.55-9.35,3.74-41.74,24.53-79.33,61.18-100.57,15.61-9.05,33.69-15.31,50.75-21l28.96-9.26c5.52-1.73,12.11-3.34,17.29-5.93,3.85-1.93,7.34-6.29,10.37-9.35l12.66-12.22,18.4-15.92c12.59,16.38,33.11,31.11,51.97,39.49,3.79,1.68,7.67,3.1,11.6,4.42,1.15.38,4.02.93,4.88,1.57,1.49,1.1,15.73,30.53,18.23,35.26l11.16-20.98,5.53-10.88c.5-.88,1.32-2.73,2.04-3.4.83-.78,4.64-1.66,5.86-2.11,4.17-1.54,8.29-3.24,12.26-5.24,19.24-9.77,34.48-23.55,48.57-39.61Z"/>
  <path class="cls-2" d="M283.75,648.22c3.31-.26,6.66.05,9.7,1.52,3.42,1.66,6.04,5.53,7.16,9.06,1.18,3.74.58,7.9-1.35,11.29-2.52,4.43-6.2,6.12-10.84,7.42-3.61.14-6.74.03-9.97-1.85-3.78-2.19-6.26-5.41-7.32-9.68-.98-3.95-.21-8.29,2.06-11.67,2.53-3.76,6.33-5.14,10.56-6.07Z"/>
  <path class="cls-2" d="M283.58,720.18c3.7-.26,6.81.05,10.14,1.8,3.46,1.81,5.99,5.38,7.01,9.1,1.14,4.15.58,8.38-1.72,12.02-2.53,4.01-5.96,5.73-10.47,6.82-2.7.23-6.04.01-8.53-1.14-4.01-1.83-6.91-5.11-8.44-9.24-1.43-3.86-.95-7.39.91-11.02,2.36-4.58,6.38-6.87,11.1-8.35Z"/>
  <path class="cls-2" d="M373.52,533.57l32.04,32.79-.21.47c-2.37,2.84-7.28,5.7-10.34,7.95-23.29,17.21-48.55,30.74-76.21,39.53l-27.14,5.56,17.58-33.8c1.83-3.4,3.8-8.43,6.35-11.27,2.63-2.93,8.89-5.54,12.48-7.54,5.15-2.86,10.22-5.8,15.11-9.1,10.97-7.4,20.62-15.66,30.33-24.59Z"/>
  <path class="cls-2" d="M198.75,533.91c12.6,12.06,26.39,22.05,41.5,30.76l13.44,6.96c1.25.61,4.06,1.57,4.99,2.44,1.7,1.59,3.62,6.52,4.8,8.71l19.4,37.5-24.55-4.95c-28.57-7.68-55.69-21.52-78.74-40.1-3.21-2.58-8.03-5.77-10.27-9.1l29.43-32.22Z"/>
</svg>